<?xml version="1.0" encoding="utf-8"?>
<!-- Generator: Adobe Illustrator 16.0.0, SVG Export Plug-In . SVG Version: 6.00 Build 0)  -->
<!DOCTYPE svg PUBLIC "-//W3C//DTD SVG 1.1//EN" "http://www.w3.org/Graphics/SVG/1.1/DTD/svg11.dtd">
<svg version="1.1" id="Layer_1" xmlns="http://www.w3.org/2000/svg" xmlns:xlink="http://www.w3.org/1999/xlink" x="0px" y="0px"
	 width="262px" height="64px" viewBox="0 0 262 64" enable-background="new 0 0 262 64" xml:space="preserve">
<g>
	<g>
		<path fill="#EB0029" d="M5.807,34.657c0-0.006,0-0.009-0.001-0.014h14.187v14.841h5.741V14.15h-5.741v14.842H5.806
			c0.026-0.244,0.057-0.487,0.089-0.731c0.006-0.048,0.013-0.094,0.02-0.142c0.025-0.175,0.051-0.349,0.079-0.521
			c0.011-0.068,0.023-0.135,0.034-0.204c0.026-0.15,0.053-0.299,0.081-0.449c0.015-0.083,0.031-0.166,0.047-0.248
			c0.025-0.127,0.052-0.254,0.08-0.381c0.021-0.102,0.042-0.202,0.065-0.303c0.018-0.078,0.038-0.155,0.055-0.233
			C8.623,16.225,16.141,8.68,25.681,6.378c0.053-0.013,0.105-0.024,0.158-0.037c0.139-0.033,0.279-0.064,0.419-0.096
			c0.112-0.023,0.225-0.046,0.337-0.069c0.083-0.017,0.167-0.035,0.251-0.051c0.178-0.034,0.356-0.066,0.536-0.097
			c0.021-0.003,0.042-0.007,0.063-0.011c1.451-0.245,2.917-0.367,4.384-0.366c0.213,0,0.426,0.003,0.638,0.008
			c0.093,0.002,0.186,0.007,0.278,0.01c0.121,0.004,0.243,0.008,0.364,0.013c0.118,0.006,0.235,0.014,0.353,0.021
			c0.095,0.006,0.19,0.011,0.285,0.018c0.13,0.009,0.259,0.021,0.389,0.032c0.083,0.007,0.164,0.014,0.246,0.022
			c0.135,0.014,0.27,0.029,0.405,0.044c0.076,0.009,0.154,0.017,0.229,0.026c0.136,0.016,0.271,0.035,0.405,0.053
			c0.078,0.011,0.156,0.022,0.233,0.032c0.129,0.02,0.258,0.041,0.388,0.061c0.084,0.014,0.17,0.028,0.254,0.042
			c0.118,0.02,0.236,0.042,0.353,0.064c0.1,0.019,0.199,0.038,0.297,0.058c0.1,0.019,0.2,0.04,0.3,0.061
			c0.121,0.026,0.241,0.053,0.362,0.08c0.074,0.017,0.149,0.034,0.224,0.052c0.151,0.035,0.3,0.072,0.45,0.11
			c0.043,0.011,0.085,0.022,0.128,0.033c0.187,0.049,0.373,0.098,0.559,0.151c0.003,0.001,0.007,0.002,0.01,0.003
			c4.341,1.237,8.226,3.569,11.334,6.677l0.009-0.008c2.922,2.922,5.007,6.363,6.257,10.026h5.913
			c-1.415-5.136-4.138-9.986-8.174-14.022c-3.976-3.976-8.742-6.678-13.793-8.109c-0.003-0.001-0.007-0.001-0.009-0.001
			c-0.227-0.065-0.455-0.126-0.684-0.186c-0.05-0.013-0.101-0.026-0.152-0.04c-0.183-0.046-0.366-0.091-0.55-0.134
			c-0.09-0.021-0.179-0.042-0.269-0.063c-0.148-0.034-0.296-0.066-0.445-0.097c-0.12-0.025-0.239-0.05-0.359-0.074
			c-0.123-0.023-0.245-0.047-0.367-0.069c-0.142-0.027-0.283-0.054-0.424-0.078c-0.105-0.018-0.21-0.035-0.314-0.052
			c-0.156-0.025-0.311-0.05-0.467-0.073c-0.095-0.014-0.191-0.027-0.287-0.041c-0.163-0.022-0.325-0.044-0.487-0.063
			c-0.095-0.012-0.189-0.021-0.285-0.033c-0.162-0.019-0.325-0.037-0.488-0.052c-0.101-0.011-0.203-0.019-0.304-0.027
			c-0.156-0.015-0.312-0.028-0.468-0.04c-0.117-0.009-0.235-0.015-0.353-0.022c-0.141-0.008-0.282-0.019-0.423-0.025
			c-0.15-0.007-0.299-0.012-0.449-0.018c-0.111-0.004-0.221-0.009-0.332-0.011c-0.518-0.013-1.037-0.013-1.556-0.001
			c-2.054,0.049-4.061,0.293-6.003,0.715C19.285,1.974,13.8,4.838,9.319,9.319c-4.668,4.668-7.579,10.427-8.739,16.456
			c-0.017,0.089-0.035,0.178-0.051,0.268c-0.027,0.144-0.051,0.288-0.076,0.433c-0.021,0.125-0.042,0.251-0.063,0.377
			c-0.021,0.132-0.04,0.263-0.059,0.396c-0.02,0.138-0.04,0.275-0.058,0.414c-0.016,0.128-0.032,0.255-0.047,0.384
			c-0.017,0.141-0.032,0.281-0.047,0.422c-0.014,0.129-0.027,0.258-0.039,0.387c-0.004,0.046-0.01,0.092-0.014,0.138
			c-0.01,0.113-0.017,0.228-0.026,0.341c-0.007,0.095-0.016,0.19-0.021,0.284C0.028,30.345,0,31.078,0,31.817
			c0,0.09,0.002,0.18,0.004,0.27c0,0.013,0,0.027,0,0.04c0.002,0.253,0.007,0.507,0.017,0.758c0.001,0.042,0.003,0.085,0.004,0.127
			c0.009,0.222,0.02,0.442,0.033,0.663c0.004,0.062,0.007,0.121,0.01,0.182c0.017,0.263,0.036,0.525,0.059,0.786
			c0,0.005,0.001,0.008,0.001,0.014H5.807z"/>
		<path fill="#EB0029" d="M63.181,37.172c0.021-0.129,0.043-0.258,0.064-0.387c0.02-0.129,0.039-0.258,0.057-0.387
			c0.021-0.14,0.041-0.281,0.06-0.423c0.017-0.125,0.032-0.25,0.046-0.376c0.018-0.143,0.034-0.286,0.048-0.431
			c0.014-0.127,0.026-0.253,0.039-0.378c0.004-0.05,0.01-0.099,0.015-0.148c0.01-0.112,0.018-0.225,0.026-0.338
			c0.007-0.093,0.015-0.185,0.022-0.277c0.051-0.73,0.079-1.466,0.079-2.21c0-0.087-0.002-0.175-0.003-0.263
			c0-0.008,0-0.016,0-0.024c-0.003-0.259-0.009-0.517-0.017-0.773c-0.001-0.04-0.002-0.079-0.004-0.119
			c-0.008-0.224-0.02-0.448-0.032-0.671c-0.004-0.058-0.007-0.118-0.011-0.177c-0.016-0.258-0.036-0.516-0.057-0.771
			c-0.001-0.009-0.001-0.018-0.002-0.026h-5.678H36.66L46.904,14.15h-7.06L27.471,31.817l12.373,17.667h7.06L36.66,34.643h21.171
			c-0.002,0.023-0.004,0.045-0.007,0.067c0,0.005-0.001,0.013-0.002,0.018c-0.024,0.218-0.051,0.437-0.081,0.653
			c-0.007,0.049-0.014,0.097-0.021,0.146c-0.025,0.172-0.051,0.346-0.08,0.519c-0.011,0.067-0.022,0.136-0.034,0.203
			c-0.026,0.15-0.053,0.3-0.082,0.449c-0.015,0.082-0.031,0.164-0.047,0.246c-0.025,0.127-0.053,0.256-0.08,0.383
			c-0.022,0.1-0.043,0.2-0.066,0.3c-0.017,0.077-0.036,0.151-0.054,0.227c-2.265,9.557-9.782,17.104-19.324,19.405
			c-0.053,0.012-0.105,0.024-0.158,0.037c-0.139,0.031-0.279,0.065-0.419,0.095c-0.112,0.023-0.224,0.046-0.336,0.069
			c-0.084,0.018-0.167,0.035-0.251,0.051c-0.178,0.035-0.357,0.067-0.536,0.098c-0.021,0.003-0.042,0.009-0.063,0.011
			c-1.45,0.245-2.917,0.367-4.384,0.367c-0.212,0-0.425-0.004-0.637-0.009c-0.093-0.002-0.186-0.006-0.278-0.009
			c-0.121-0.006-0.243-0.009-0.364-0.015c-0.117-0.005-0.234-0.014-0.352-0.022c-0.096-0.006-0.19-0.009-0.285-0.018
			c-0.13-0.009-0.26-0.02-0.39-0.032c-0.082-0.007-0.164-0.014-0.246-0.022c-0.135-0.013-0.27-0.027-0.404-0.043
			c-0.077-0.009-0.154-0.018-0.23-0.026c-0.135-0.018-0.269-0.035-0.404-0.053c-0.078-0.011-0.156-0.023-0.234-0.034
			c-0.129-0.018-0.258-0.038-0.386-0.06c-0.085-0.015-0.171-0.026-0.256-0.042c-0.117-0.021-0.234-0.043-0.352-0.064
			c-0.099-0.019-0.199-0.037-0.298-0.056c-0.1-0.021-0.2-0.043-0.299-0.064c-0.121-0.024-0.242-0.051-0.362-0.079
			c-0.075-0.016-0.15-0.033-0.225-0.051c-0.15-0.035-0.3-0.072-0.449-0.109c-0.043-0.013-0.085-0.021-0.127-0.034
			c-0.188-0.048-0.374-0.099-0.559-0.151c-0.003,0-0.007,0-0.01-0.002c-4.341-1.236-8.226-3.568-11.334-6.679l-0.009,0.009
			c-2.918-2.917-5.002-6.354-6.253-10.012H1.15c1.415,5.131,4.137,9.977,8.169,14.01c3.977,3.975,8.744,6.677,13.795,8.107
			c0.002,0.001,0.005,0.003,0.008,0.003c0.227,0.063,0.455,0.126,0.683,0.186c0.051,0.014,0.102,0.026,0.153,0.039
			c0.183,0.048,0.365,0.09,0.548,0.134c0.09,0.021,0.18,0.043,0.271,0.063c0.147,0.032,0.295,0.063,0.443,0.096
			c0.12,0.026,0.24,0.051,0.36,0.076c0.122,0.022,0.244,0.046,0.365,0.068c0.142,0.026,0.284,0.053,0.426,0.078
			c0.104,0.018,0.208,0.035,0.313,0.051c0.156,0.026,0.312,0.05,0.468,0.072c0.096,0.017,0.191,0.028,0.287,0.041
			c0.163,0.022,0.325,0.046,0.489,0.065c0.094,0.011,0.188,0.021,0.283,0.033c0.163,0.018,0.326,0.035,0.49,0.052
			c0.1,0.01,0.201,0.018,0.302,0.026c0.156,0.014,0.313,0.03,0.47,0.04c0.116,0.009,0.233,0.015,0.35,0.021
			c0.142,0.011,0.283,0.02,0.425,0.024c0.148,0.009,0.297,0.013,0.446,0.018c0.112,0.006,0.224,0.011,0.335,0.013
			c0.263,0.007,0.526,0.011,0.789,0.011h0.002c0.254,0,0.51-0.004,0.764-0.009c2.066-0.05,4.083-0.297,6.035-0.723
			c5.753-1.253,11.226-4.116,15.698-8.587c4.667-4.667,7.576-10.422,8.737-16.447c0.018-0.092,0.037-0.184,0.053-0.275
			C63.133,37.454,63.156,37.313,63.181,37.172"/>
	</g>
	<rect x="102.75" y="19.886" fill="#003056" width="5.751" height="23.864"/>
	<polygon fill="#003056" points="114.135,43.75 132.193,43.75 132.193,39.1 121.075,39.1 121.075,38.802 131.826,23.61 
		131.826,19.886 114.361,19.886 114.361,24.537 124.921,24.537 124.921,24.816 114.135,40.025 	"/>
	<rect x="137.825" y="19.886" fill="#003056" width="5.753" height="23.864"/>
	<polygon fill="#003056" points="166.291,38.89 156.626,38.89 156.626,19.886 150.875,19.886 150.875,43.75 166.291,43.75 	"/>
	<path fill="#003056" d="M206.855,35.506h-6.036l2.911-10.427h0.262L206.855,35.506z M215.182,43.75l-7.657-23.864h-6.994
		l-7.691,23.864h5.735l1.179-4.03h8.134l1.194,4.03H215.182z"/>
	<path fill="#003056" d="M247.068,25.079h0.263l2.863,10.428h-6.036L247.068,25.079z M243.869,19.887l-7.691,23.863h5.734l1.18-4.03
		h8.135l1.191,4.03h6.102l-7.657-23.863H243.869z"/>
	<polygon fill="#003056" points="228.52,43.75 228.52,35.322 236.509,19.886 230.424,19.886 225.845,29.693 225.617,29.693 
		221.599,19.886 215.306,19.886 222.768,35.479 222.768,43.75 	"/>
	<polygon fill="#003056" points="91.053,31.818 98.12,19.886 91.337,19.886 85.296,30.559 85.296,30.008 85.296,19.886 
		79.545,19.886 79.545,43.75 85.296,43.75 85.296,36.563 85.296,33.094 91.337,43.75 98.12,43.75 	"/>
	<polygon fill="#003056" points="182.532,31.818 190.653,19.886 183.87,19.886 176.777,30.559 176.777,30.008 176.777,19.886 
		171.025,19.886 171.025,43.75 176.777,43.75 176.777,36.563 176.777,33.094 183.87,43.75 190.653,43.75 	"/>
</g>
</svg>
